<svg version="1.2" xmlns="http://www.w3.org/2000/svg" viewBox="0 0 375 80" width="375" height="80">
	<title>BG Split-svg</title>
	<style>
		.s0 { fill: #0acae4 } 
		.s1 { fill: #ffffff } 
	</style>
	<g id="Layer">
		<g id="Layer">
			<g id="Layer">
				<path id="Layer" class="s0" d="m46.6 47.9l0.8-3.6-12.8-6 15.5-6.1 0.8-3.9-19.5 8-0.9 3.6z"/>
			</g>
		</g>
	</g>
	<g id="Layer">
		<g id="Layer">
			<g id="Layer">
				<path id="Layer" class="s0" d="m50.1 52.3l15.7-28.2h-3.8l-15.7 28.2z"/>
			</g>
		</g>
	</g>
	<g id="Layer">
		<g id="Layer">
			<g id="Layer">
				<path id="Layer" class="s0" d="m80.8 39.9l0.8-3.6-16-8-0.8 3.6 12.8 6.1-15.5 6-0.9 3.9z"/>
			</g>
		</g>
	</g>
	<g id="Layer">
		<g id="Layer">
			<g id="Layer">
			</g>
		</g>
	</g>
	<g id="Layer">
		<g id="Layer">
			<g id="Layer">
				<path id="Layer" fill-rule="evenodd" class="s1" d="m106.7 51.5v-2.5c-1.5 1.9-3.6 2.9-5.9 2.9-4.9 0-8.5-3.6-8.5-10 0-6.3 3.6-10.2 8.5-10.2 2.3 0 4.4 1 5.9 3v-9.8h5.1v26.6zm0-13.1c-0.8-1.3-2.6-2.2-4.3-2.2-2.9 0-4.9 2.3-4.9 5.7 0 3.3 2 5.5 4.9 5.5 1.7 0 3.5-0.9 4.3-2.2z"/>
			</g>
		</g>
	</g>
	<g id="Layer">
		<g id="Layer">
			<g id="Layer">
				<path id="Layer" fill-rule="evenodd" class="s1" d="m128 51.5v-2c-1.3 1.5-3.5 2.4-6.1 2.4-3 0-6.7-2-6.7-6.3 0-4.5 3.7-6.2 6.7-6.2 2.6 0 4.9 0.8 6.1 2.4v-2.7c0-2-1.6-3.2-4.2-3.2-2.1 0-4 0.7-5.6 2.2l-1.9-3.3c2.3-2.1 5.4-3.1 8.4-3.1 4.4 0 8.4 1.8 8.4 7.3v12.5zm0-7.1c-0.8-1.1-2.4-1.6-4.1-1.6-2 0-3.6 1-3.6 2.9 0 1.8 1.6 2.8 3.6 2.8 1.7 0 3.3-0.5 4.1-1.7z"/>
			</g>
		</g>
	</g>
	<g id="Layer">
		<g id="Layer">
			<g id="Layer">
				<path id="Layer" class="s1" d="m142.8 51.5v-12.8c0.8-1.2 3.1-2.1 4.7-2.1q0.9 0 1.4 0.1v-4.9c-2.4 0-4.7 1.3-6.1 3v-2.6h-5.1v19.3z"/>
			</g>
		</g>
	</g>
	<g id="Layer">
		<g id="Layer">
			<g id="Layer">
				<path id="Layer" class="s1" d="m174 51.5l5.9-19.3h-5.3l-3.6 13-4.2-13h-4.5l-4.3 13-3.6-13h-5.2l5.8 19.3h5.5l4-13.2 4.1 13.2z"/>
			</g>
		</g>
	</g>
	<g id="Layer">
		<g id="Layer">
			<g id="Layer">
				<path id="Layer" class="s1" d="m184.5 29.4c1.7 0 3-1.4 3-3.1 0-1.6-1.3-3-3-3-1.7 0-3 1.4-3 3 0 1.7 1.3 3.1 3 3.1zm2.5 22.1v-19.3h-5v19.3z"/>
			</g>
		</g>
	</g>
	<g id="Layer">
		<g id="Layer">
			<g id="Layer">
				<path id="Layer" class="s1" d="m190 49c2 1.8 5.3 2.9 8.6 2.9 5.4 0 8.3-2.6 8.3-6.1 0-4.8-4.4-5.7-7.7-6.3-2.2-0.5-3.7-0.9-3.7-2.1 0-1.1 1.2-1.8 3.1-1.8 2.3 0 4.5 1 5.7 2.2l2-3.4c-1.9-1.6-4.5-2.7-7.8-2.7-5 0-7.9 2.9-7.9 6.1 0 4.6 4.3 5.4 7.6 6 2.2 0.4 3.9 0.9 3.9 2.3 0 1.2-1.1 1.9-3.3 1.9-2.3 0-5.2-1.3-6.6-2.6z"/>
			</g>
		</g>
	</g>
	<g id="Layer">
		<g id="Layer">
			<g id="Layer">
				<path id="Layer" fill-rule="evenodd" class="s1" d="m221.9 51.5v-2c-1.4 1.5-3.6 2.4-6.1 2.4-3.1 0-6.7-2-6.7-6.3 0-4.5 3.6-6.2 6.7-6.2 2.5 0 4.8 0.8 6.1 2.4v-2.7c0-2-1.7-3.2-4.3-3.2-2 0-4 0.7-5.6 2.2l-1.9-3.3c2.3-2.1 5.4-3.1 8.4-3.1 4.4 0 8.4 1.8 8.4 7.3v12.5zm0-7.1c-0.8-1.1-2.4-1.6-4-1.6-2 0-3.7 1-3.7 2.9 0 1.8 1.7 2.8 3.7 2.8 1.6 0 3.2-0.5 4-1.7z"/>
			</g>
		</g>
	</g>
	<g id="Layer">
		<g id="Layer">
			<g id="Layer">
				<path id="Layer" fill-rule="evenodd" class="s1" d="m231.6 51.5v-26.6h5v9.8c1.5-2 3.7-3 6-3 4.9 0 8.5 3.9 8.5 10.2 0 6.4-3.7 10-8.5 10-2.3 0-4.5-1-6-2.9v2.5zm5.1-6.2c0.8 1.2 2.7 2.1 4.3 2.1 3 0 4.9-2.2 4.9-5.5 0-3.4-1.9-5.7-4.9-5.7-1.6 0-3.5 1-4.3 2.3z"/>
			</g>
		</g>
	</g>
	<g id="Layer">
		<g id="Layer">
			<g id="Layer">
				<path id="Layer" fill-rule="evenodd" class="s1" d="m267.8 51.5v-2.5c-1.5 1.9-3.7 2.9-6 2.9-4.8 0-8.5-3.6-8.5-10 0-6.3 3.6-10.2 8.5-10.2 2.3 0 4.5 1 6 3v-9.8h5.1v26.6zm0-13.1c-0.9-1.3-2.7-2.2-4.4-2.2-2.9 0-4.9 2.3-4.9 5.7 0 3.3 2 5.5 4.9 5.5 1.7 0 3.5-0.9 4.4-2.2z"/>
			</g>
		</g>
	</g>
	<g id="Layer">
		<g id="Layer">
			<g id="Layer">
				<path id="Layer" class="s1" d="m282.6 51.5v-12.8c0.8-1.2 3-2.1 4.7-2.1q0.9 0 1.4 0.1v-4.9c-2.4 0-4.8 1.3-6.1 3v-2.6h-5.1v19.3z"/>
			</g>
		</g>
	</g>
	<g id="Layer">
		<g id="Layer">
			<g id="Layer">
				<path id="Layer" fill-rule="evenodd" class="s1" d="m303 51.5v-2c-1.3 1.5-3.6 2.4-6.1 2.4-3 0-6.7-2-6.7-6.3 0-4.5 3.7-6.2 6.7-6.2 2.6 0 4.9 0.8 6.1 2.4v-2.7c0-2-1.6-3.2-4.2-3.2-2.1 0-4 0.7-5.6 2.2l-1.9-3.3c2.3-2.1 5.4-3.1 8.4-3.1 4.4 0 8.4 1.8 8.4 7.3v12.5zm0-7.1c-0.8-1.1-2.4-1.6-4.1-1.6-2 0-3.6 1-3.6 2.9 0 1.8 1.6 2.8 3.6 2.8 1.7 0 3.3-0.5 4.1-1.7z"/>
			</g>
		</g>
	</g>
	<g id="Layer">
		<g id="Layer">
			<g id="Layer">
				<path id="Layer" class="s1" d="m330.8 51.5v-19.3h-5.1v13c-0.8 1.2-2.4 2.2-4.4 2.2-2.1 0-3.5-0.8-3.5-3.5v-11.7h-5.1v13.7c0 3.7 2 6 6.3 6 3.1 0 5.4-1.4 6.7-2.9v2.5z"/>
			</g>
		</g>
	</g>
	<g id="Layer">
		<g id="Layer">
			<g id="Layer">
				<path id="Layer" class="s1" d="m345.6 36.6v-4.4h-4v-1c0-1.8 1-2.7 2.4-2.7 0.6 0 1.2 0.1 1.7 0.4l1-3.6c-0.9-0.5-2.2-0.8-3.7-0.8-3.7 0-6.5 2.5-6.5 6.7v1h-3.1v4.4h3.1v14.9h5.1v-14.9z"/>
			</g>
		</g>
	</g>
</svg>